# xmcd
#
# Track frame offsets:
#	150
#	21602
#	38612
#	59478
#	79546
#	98568
#	116793
#	134342
#	156879
#	177280
#	201862
#	220394
#	250121
#
# Disc length: 3743 seconds
#
# Revision: 0
# Processed by: cddbd v1.5.2PL0 Copyright (c) Steve Scherf et al.
# Submitted via: dBpowerAMP V4.0
#
DISCID=b40e9d0d
DTITLE=Vaughan Penn - Somebody Besides Yourself
DYEAR=1900
DGENRE=unfiled
TTITLE0=Right In Front Of You
TTITLE1=Truth
TTITLE2=A Million Angels
TTITLE3=Eye For An Eye
TTITLE4=Happy And Free
TTITLE5=Ready To Rise
TTITLE6=Valerie
TTITLE7=Sliding Down
TTITLE8=Hands That Heal
TTITLE9=Lover's Road
TTITLE10=Some Kinda Sign
TTITLE11=Breathe
TTITLE12=DATA
EXTD=
EXTT0=
EXTT1=
EXTT2=
EXTT3=
EXTT4=
EXTT5=
EXTT6=
EXTT7=
EXTT8=
EXTT9=
EXTT10=
EXTT11=
EXTT12=
PLAYORDER=
